<?xml version="1.0" standalone="no"?>
<!DOCTYPE svg PUBLIC "-//W3C//DTD SVG 20010904//EN"
 "http://www.w3.org/TR/2001/REC-SVG-20010904/DTD/svg10.dtd">
<svg version="1.0" xmlns="http://www.w3.org/2000/svg"
 width="640.000000pt" height="640.000000pt" viewBox="0 0 640.000000 640.000000"
 preserveAspectRatio="xMidYMid meet">

<g transform="translate(0.000000,640.000000) scale(0.100000,-0.100000)"
fill="#006c35" stroke="none">
<path d="M2985 6394 c-941 -74 -1776 -529 -2335 -1270 -344 -455 -547 -952
-626 -1529 -25 -183 -25 -607 0 -790 102 -748 418 -1376 957 -1901 644 -627
1516 -952 2406 -896 784 48 1485 361 2046 911 580 569 909 1288 959 2094 56
890 -269 1762 -896 2406 -523 537 -1159 857 -1896 956 -110 15 -511 27 -615
19z m-1404 -2037 c26 -17 34 -30 34 -52 0 -26 -4 -30 -29 -33 -31 -4 -91 -58
-74 -68 16 -10 75 6 112 31 44 30 47 14 5 -26 -33 -31 -104 -51 -132 -37 -21
11 -15 41 13 73 13 14 16 25 10 36 -5 8 -7 29 -5 45 2 16 4 35 4 42 1 18 24
15 62 -11z m597 -43 c34 -60 41 -87 18 -78 -10 4 -2 -29 25 -107 31 -88 39
-121 34 -151 -8 -48 -59 -117 -96 -131 -18 -7 -27 -17 -25 -27 2 -8 7 -42 11
-75 4 -33 9 -63 12 -67 2 -4 31 6 64 23 72 36 86 30 91 -38 3 -45 27 -77 44
-60 4 4 -2 71 -14 150 -12 78 -31 214 -42 302 -11 88 -25 174 -31 192 -10 32
5 113 21 113 8 0 80 -170 80 -189 0 -10 -6 -9 -21 5 -21 19 -21 19 -15 -16 3
-19 22 -147 42 -285 19 -137 37 -251 38 -253 5 -4 53 72 60 96 11 34 21 27 37
-25 11 -37 20 -50 42 -57 39 -14 66 12 49 49 -9 20 -9 33 4 65 19 47 29 44 44
-10 7 -28 7 -52 -1 -83 -13 -52 -62 -117 -89 -117 -31 0 -69 22 -76 43 -5 16
-10 13 -31 -23 -25 -41 -25 -44 -14 -129 6 -48 11 -112 11 -142 0 -58 -16
-129 -29 -129 -5 0 -11 42 -14 93 -3 50 -11 127 -17 170 -12 72 -14 77 -37 77
-31 0 -72 41 -79 80 -9 41 -17 44 -62 21 l-38 -20 4 -139 4 -140 -33 -63 c-49
-92 -139 -179 -235 -225 -69 -33 -88 -38 -149 -38 -164 0 -243 106 -233 312 6
103 34 232 50 232 6 0 8 -12 5 -28 -50 -248 -19 -358 109 -399 48 -15 62 -15
117 -4 87 18 172 65 243 136 97 97 98 97 83 212 -15 119 -29 142 -29 48 0
-108 -42 -184 -144 -260 -80 -59 -139 -85 -196 -85 -85 0 -148 49 -171 133
-19 70 5 251 36 277 8 7 7 -10 -3 -59 -22 -101 -11 -155 43 -208 39 -39 47
-43 93 -43 28 0 64 5 79 12 55 24 142 88 176 130 54 67 61 85 47 119 -12 28
-15 29 -76 29 -51 0 -68 4 -84 20 -25 25 -26 85 -5 158 24 79 70 94 130 41 19
-17 40 -48 46 -70 13 -41 35 -56 26 -16 -3 12 -9 57 -13 99 -6 75 -8 77 -36
83 -21 5 -36 20 -57 57 l-29 50 -25 -55 c-38 -84 -112 -111 -184 -67 -76 46
-90 125 -58 315 4 27 3 26 -15 -11 -10 -22 -29 -94 -40 -159 -16 -88 -27 -126
-42 -142 -39 -41 -72 -24 -104 52 -20 49 -31 214 -16 241 10 16 11 13 12 -20
0 -71 21 -163 41 -185 27 -29 55 -13 68 37 5 20 19 75 31 121 12 46 29 100 40
120 33 67 82 92 73 39 -12 -73 -19 -225 -12 -257 11 -48 41 -71 94 -71 37 0
47 5 79 40 41 46 42 56 21 185 -18 107 -18 145 -5 181 10 25 12 26 27 12 10
-11 21 -60 33 -156 17 -134 36 -198 67 -223 12 -11 13 -9 9 12 -3 13 -12 74
-21 135 -8 61 -19 124 -25 138 -10 27 4 116 19 116 9 0 81 -160 81 -179 0 -8
-6 -11 -15 -7 -19 7 -18 1 3 -136 l17 -107 41 18 c23 11 45 24 48 30 4 6 -6
46 -22 89 -45 115 -72 232 -65 275 3 20 9 37 12 37 4 0 21 -25 39 -56z m435
24 c24 -32 17 -81 -11 -76 -10 1 -35 -11 -56 -29 -35 -28 -145 -77 -154 -68
-2 2 16 14 40 26 82 41 130 80 118 93 -13 16 15 89 32 84 7 -3 21 -16 31 -30z
m516 -23 c34 -59 40 -88 17 -79 -11 4 -5 -22 20 -91 51 -142 44 -220 -25 -278
-65 -54 -171 -26 -205 55 l-12 28 -23 -49 c-53 -118 -188 -122 -248 -8 -13 25
-15 52 -10 137 3 58 8 114 12 125 3 11 -1 7 -11 -9 -18 -33 -38 -111 -49 -196
-14 -104 -51 -153 -98 -128 -44 23 -80 188 -63 282 12 62 26 39 26 -43 0 -98
19 -151 55 -151 30 0 38 15 59 109 35 156 97 276 126 244 4 -4 1 -57 -6 -118
-23 -177 -1 -235 90 -235 38 0 48 5 74 35 42 47 47 87 27 200 -17 95 -16 168
3 187 19 19 39 -44 52 -157 15 -138 26 -179 62 -217 26 -28 33 -30 79 -26 33
4 58 12 72 26 l21 21 -36 88 c-44 107 -72 231 -63 273 4 16 10 30 15 30 4 0
22 -25 39 -55z m228 34 c21 -18 15 -34 -27 -73 -27 -24 -50 -36 -70 -36 -17 0
-30 2 -30 5 0 2 19 15 43 27 l42 23 -37 3 c-43 4 -48 18 -17 51 17 18 28 22
52 17 16 -3 36 -11 44 -17z m316 -1 c9 -5 17 -14 17 -21 0 -35 -65 -87 -110
-87 -29 0 -25 13 10 28 37 17 39 35 3 30 -34 -4 -39 12 -13 45 22 28 46 29 93
5z m293 -9 c32 -26 -59 -104 -114 -97 -27 4 -27 4 11 23 42 21 49 40 12 33
-14 -3 -28 -2 -30 3 -8 13 17 58 34 62 21 4 69 -9 87 -24z m744 16 c36 -18 36
-19 9 -53 -27 -35 -69 -62 -96 -62 -34 0 -28 14 15 35 l37 19 -32 4 c-37 4
-45 29 -17 56 20 20 47 20 84 1z m-1220 -94 c35 -85 40 -122 14 -100 -15 12
-16 10 -10 -26 4 -22 15 -109 26 -193 l19 -152 62 -78 c35 -42 83 -99 107
-127 78 -88 102 -140 101 -220 l0 -70 -23 62 c-26 70 -20 61 -138 201 -49 57
-88 97 -88 90 0 -7 6 -51 14 -98 30 -177 38 -291 24 -345 -7 -27 -17 -49 -23
-48 -5 2 -13 49 -16 105 -3 57 -18 186 -33 288 l-28 185 -42 53 c-84 107 -216
298 -222 320 -4 13 -3 41 2 63 l9 40 75 -76 74 -75 -32 0 -33 0 54 -67 c29
-38 62 -81 72 -96 10 -15 19 -26 21 -24 2 1 -10 93 -26 202 -27 178 -30 240
-13 268 9 14 21 -5 53 -82z m305 -11 c37 -91 40 -115 9 -90 -14 12 -15 10 -10
-21 4 -19 27 -173 52 -344 37 -252 45 -328 41 -405 -5 -112 -30 -187 -83 -248
-25 -30 -34 -48 -29 -62 9 -28 54 -80 69 -80 25 0 55 48 100 163 49 125 100
214 136 240 l21 15 -45 328 c-40 288 -68 466 -77 499 -5 17 12 105 20 105 10
0 81 -171 81 -195 -1 -20 -1 -20 -15 -1 -8 11 -15 16 -15 10 0 -14 37 -288 70
-517 17 -115 30 -211 30 -213 0 -2 6 -4 14 -4 22 0 53 -46 77 -111 32 -86 56
-109 119 -109 56 0 94 26 105 72 3 13 -10 138 -30 278 -19 140 -38 274 -41
297 -6 41 -20 64 -95 154 -21 24 -68 90 -106 146 -63 94 -68 105 -65 147 2 25
7 46 11 46 3 0 38 -31 76 -70 65 -66 68 -70 42 -70 -15 0 -27 -3 -27 -6 0 -9
135 -183 138 -179 2 2 -4 59 -13 126 -15 113 -13 199 4 199 9 0 81 -174 81
-196 0 -13 -3 -14 -15 -4 -8 7 -15 10 -15 8 0 -3 7 -53 15 -112 l15 -108 62
-75 c34 -41 64 -71 66 -65 1 5 -11 106 -29 223 -34 227 -35 240 -24 296 8 45
16 37 59 -66 33 -78 38 -110 15 -96 -13 9 -12 -9 20 -242 l29 -212 79 -90
c105 -123 123 -158 122 -246 l-1 -70 -15 57 c-11 44 -28 72 -67 116 -28 31
-64 73 -79 92 -25 32 -27 33 -23 10 22 -113 23 -262 3 -311 l-14 -34 -7 80
c-4 44 -16 142 -26 217 l-18 137 -68 78 -67 77 6 -39 c62 -398 56 -541 -28
-630 -28 -30 -39 -35 -80 -35 -68 0 -99 22 -134 100 -17 37 -31 71 -31 76 0 6
-6 19 -14 29 -12 16 -12 12 -5 -31 12 -76 11 -259 -3 -291 l-12 -28 -3 35 c-9
121 -38 330 -45 330 -34 0 -91 -100 -133 -232 -36 -116 -81 -192 -116 -196
-40 -5 -86 47 -106 118 l-16 59 -38 -20 c-21 -10 -67 -26 -101 -34 -119 -28
-126 -15 -20 39 37 19 86 48 110 65 42 31 42 31 42 95 0 36 5 68 10 71 6 4 10
-15 10 -51 l0 -57 26 24 c52 49 77 105 75 172 -1 34 -3 69 -6 77 -8 25 -118
773 -118 805 -1 41 12 87 22 81 4 -3 25 -46 46 -96z m1024 8 c33 -82 43 -138
18 -104 -9 12 2 -91 34 -315 50 -347 56 -435 38 -534 -24 -132 -108 -232 -224
-268 -73 -23 -145 -36 -150 -27 -2 4 32 27 76 51 122 65 207 141 248 221 l33
66 -16 98 c-9 55 -36 250 -61 434 -25 184 -50 342 -55 352 -8 15 -5 72 6 107
7 21 18 5 53 -81z m-2024 39 c20 -35 25 -57 25 -108 -1 -36 -7 -75 -15 -89
-13 -24 -14 -21 -15 42 0 65 -14 118 -32 118 -4 0 -8 18 -8 40 0 22 4 40 10
40 5 0 21 -20 35 -43z m-933 -31 c25 -49 27 -130 4 -174 -9 -18 -18 -32 -20
-32 -2 0 -2 27 1 59 5 48 1 68 -16 103 -11 25 -21 59 -21 77 0 29 2 32 16 20
8 -7 25 -31 36 -53z m1158 -16 c0 -10 5 -22 11 -26 8 -5 10 1 5 19 -7 28 8 46
18 21 11 -28 6 -61 -11 -75 -13 -11 -17 -12 -21 -1 -3 10 -9 9 -23 -4 -23 -21
-37 -11 -39 31 -3 45 -1 55 11 55 7 0 10 -12 7 -30 -3 -20 0 -30 9 -30 8 0 13
13 13 36 0 21 4 33 10 29 6 -3 10 -15 10 -25z m676 -245 c-4 -10 -15 -15 -30
-13 -13 1 -31 -3 -40 -11 -13 -11 -19 -11 -31 -1 -17 14 -21 95 -5 105 6 4 10
-10 10 -34 0 -30 4 -41 15 -41 11 0 15 11 15 40 0 49 15 52 24 5 4 -19 12 -35
17 -35 7 0 8 12 4 30 -4 16 -3 35 2 42 10 17 28 -64 19 -87z m254 -12 c-34
-64 -37 -110 -6 -105 16 3 17 -1 12 -25 -11 -42 -42 -70 -64 -57 -23 15 -28
94 -7 137 18 39 73 107 86 107 5 0 -5 -26 -21 -57z m778 15 c28 -31 42 -71 42
-124 0 -37 -22 -114 -32 -114 -2 0 -3 31 -3 69 0 56 -4 75 -22 100 -22 29 -32
91 -15 91 5 0 18 -10 30 -22z m-491 -70 c-14 -24 -29 -61 -33 -82 -6 -36 -5
-39 15 -33 25 6 28 -11 6 -52 -46 -90 -102 4 -61 103 15 35 85 120 93 112 3
-2 -7 -24 -20 -48z m-949 10 c7 -7 12 -24 12 -39 0 -15 5 -31 10 -34 17 -10
12 -55 -5 -49 -8 4 -26 -8 -44 -29 -34 -38 -133 -117 -147 -117 -5 0 30 36 76
81 77 73 83 82 67 93 -28 22 -18 106 13 106 3 0 11 -5 18 -12z m442 -73 c-12
-19 -25 -48 -30 -65 -8 -27 -7 -30 16 -30 24 0 24 0 7 -35 -19 -41 -37 -50
-58 -29 -29 30 -15 91 36 155 38 48 58 51 29 4z m-2002 -50 c7 -14 12 -39 12
-55 0 -16 5 -32 10 -35 6 -3 10 -17 10 -31 0 -21 -3 -23 -18 -15 -16 8 -24 3
-50 -34 -28 -40 -168 -155 -188 -155 -5 0 38 45 96 100 l104 99 -22 24 c-26
27 -29 73 -6 105 20 29 38 28 52 -3z m-100 -98 c13 -14 12 -19 -7 -43 -29 -37
-70 -64 -98 -64 -35 0 -27 15 17 35 45 20 45 28 0 27 -33 -1 -38 14 -19 50 9
17 18 19 51 15 23 -3 47 -12 56 -20z m1297 -82 c13 -27 36 -104 51 -170 32
-146 36 -158 42 -126 7 41 69 124 130 173 l59 47 -5 55 c-4 50 -2 55 22 71 37
25 100 15 137 -21 47 -45 32 -90 -42 -124 -26 -13 -46 -26 -44 -30 3 -5 -4
-19 -15 -31 l-19 -24 -1 23 c0 12 -3 22 -6 22 -20 0 -144 -106 -144 -123 0 -6
82 -8 210 -5 116 3 210 4 210 1 0 -2 -10 -19 -22 -38 -19 -28 -32 -36 -76 -46
-56 -11 -221 -89 -241 -113 -17 -21 -3 -44 46 -73 42 -24 44 -27 41 -67 -3
-40 -4 -41 -38 -38 -96 10 -189 85 -225 182 -13 36 -24 56 -24 44 -2 -53 -133
-198 -213 -234 -83 -38 -120 -23 -148 59 -10 29 -21 48 -24 42 -4 -6 -34 -27
-67 -46 -45 -26 -79 -38 -132 -45 -140 -17 -207 -22 -207 -12 0 5 61 33 136
62 168 66 307 154 326 206 13 37 34 48 22 12 -6 -21 -5 -21 32 6 22 16 58 47
81 69 l41 39 -18 32 c-10 17 -34 69 -53 116 -26 66 -33 95 -29 128 2 24 7 42
11 40 3 -2 30 -28 59 -59 56 -60 66 -85 31 -74 -25 8 -25 9 11 -89 36 -101 8
-172 -107 -271 -37 -32 -74 -64 -81 -70 -9 -9 -10 -18 -3 -38 9 -23 17 -27 48
-27 44 0 86 25 181 108 101 87 99 83 67 215 -15 61 -36 131 -46 155 -12 28
-19 67 -19 110 1 63 2 66 16 47 9 -11 27 -42 39 -70z m1402 3 c24 -35 28 -52
28 -107 -1 -42 -7 -77 -17 -96 l-17 -30 1 73 c0 60 -4 79 -21 102 -21 30 -29
100 -11 100 5 0 22 -19 37 -42z m-1243 -55 c5 -4 6 8 2 29 -9 48 9 58 24 14 8
-26 8 -41 0 -56 -12 -22 -50 -28 -50 -7 0 6 -5 4 -11 -5 -13 -22 -45 -23 -53
-2 -9 23 -7 67 4 84 8 12 10 12 16 -3 3 -9 3 -24 0 -33 -9 -23 3 -37 20 -23 8
7 11 20 8 35 -3 12 -2 29 2 36 6 9 12 1 19 -24 5 -20 14 -40 19 -45z m946 53
c0 -2 -11 -24 -25 -47 -31 -55 -34 -109 -6 -109 18 0 19 -3 10 -29 -6 -16 -19
-37 -31 -47 -19 -18 -20 -18 -39 5 -35 43 -19 115 42 192 26 33 49 50 49 35z
m-565 -61 c-28 -42 -34 -91 -10 -82 23 10 25 -7 5 -41 -24 -38 -46 -41 -62 -7
-14 31 8 94 54 149 39 47 49 33 13 -19z m-1595 -70 c0 -26 -21 -46 -28 -27 -2
7 -10 12 -17 12 -15 0 -29 -44 -41 -123 -3 -26 -10 -49 -14 -52 -4 -3 -18 20
-30 50 -12 30 -27 55 -34 55 -6 0 -22 9 -36 19 -21 17 -23 22 -12 45 11 24 14
25 38 14 18 -8 35 -31 49 -62 l22 -50 8 49 c8 55 28 101 47 108 22 8 48 -13
48 -38z m737 -32 c-35 -69 -39 -116 -9 -111 18 3 19 -8 1 -54 -15 -37 -40 -44
-61 -18 -35 43 -16 119 48 197 20 24 38 42 41 40 2 -3 -7 -27 -20 -54z m-300
-160 c-35 -56 -49 -103 -36 -119 6 -7 17 -10 25 -7 18 7 18 -1 -2 -42 -31 -66
-80 -48 -78 28 1 49 24 99 67 145 41 43 53 41 24 -5z m2291 -137 c-2 -17 -9
-20 -30 -18 -16 2 -28 -1 -28 -7 0 -6 20 -11 45 -11 25 0 45 -4 45 -9 0 -14
-29 -41 -44 -41 -7 0 -21 -9 -31 -20 -23 -26 -39 -26 -25 -1 13 26 13 31 -5
31 -18 0 -20 41 -4 71 21 41 83 45 77 5z m-519 -42 c-16 -31 -29 -69 -29 -86
0 -25 3 -28 21 -23 20 7 21 5 15 -21 -16 -63 -68 -86 -86 -38 -11 28 -5 85 12
118 10 18 87 106 94 106 1 0 -10 -25 -27 -56z m-585 -10 c3 -9 6 -29 6 -45 0
-22 -5 -29 -19 -29 -11 0 -23 5 -27 11 -4 7 -17 -2 -34 -23 -31 -38 -108 -82
-157 -91 -18 -4 -33 -4 -33 -2 0 3 31 20 69 39 68 35 119 78 154 129 20 31 32
34 41 11z m-528 -47 c-32 -55 -35 -91 -6 -82 24 8 24 5 5 -41 -11 -28 -19 -35
-37 -32 -19 2 -24 10 -26 45 -3 45 12 82 54 132 36 43 41 32 10 -22z m-841 -8
c-32 -56 -33 -89 -4 -82 19 5 20 3 14 -18 -4 -13 -16 -33 -27 -44 -19 -20 -19
-20 -39 4 -20 25 -18 51 9 106 15 31 63 87 69 81 2 -2 -8 -23 -22 -47z m2096
-630 c21 -21 22 -55 4 -101 -6 -15 11 -17 199 -20 190 -3 207 -5 233 -24 77
-58 81 -139 8 -212 l-43 -43 -96 7 c-92 7 -98 6 -112 -14 -19 -28 -55 -28 -80
-1 -17 20 -27 21 -106 16 -107 -6 -122 2 -116 59 3 21 8 47 12 56 7 16 -59 18
-1131 20 l-1138 3 -58 23 c-60 25 -119 84 -101 102 6 6 476 11 1228 12 1162 3
1219 4 1230 21 9 14 7 20 -6 28 -25 14 -22 55 4 73 30 21 44 20 69 -5z"/>
<path d="M1540 4320 c0 -5 5 -10 11 -10 5 0 7 5 4 10 -3 6 -8 10 -11 10 -2 0
-4 -4 -4 -10z"/>
<path d="M1932 3655 c-12 -25 -11 -25 40 -25 l51 0 -23 25 c-13 14 -31 25 -40
25 -9 0 -22 -11 -28 -25z"/>
<path d="M3256 3911 c-3 -5 1 -11 9 -15 9 -3 15 0 15 9 0 16 -16 20 -24 6z"/>
<path d="M1687 3793 c-8 -7 11 -33 23 -33 5 0 6 9 3 20 -5 20 -15 25 -26 13z"/>
<path d="M3240 3632 c0 -31 12 -41 36 -30 26 12 32 28 10 28 -8 0 -21 3 -30 6
-9 3 -16 2 -16 -4z"/>
<path d="M3098 3293 c-92 -4 -94 -9 -48 -90 35 -61 70 -87 70 -52 0 37 31 88
73 119 l41 30 -30 -2 c-16 -1 -64 -4 -106 -5z"/>
<path d="M4234 2194 c-12 -3 -30 -14 -40 -25 -17 -19 -17 -20 4 -35 12 -8 22
-22 22 -30 0 -10 13 -14 50 -14 39 0 52 4 60 20 7 13 21 20 40 20 19 0 34 -7
42 -20 11 -17 24 -20 76 -20 75 0 102 12 102 45 0 48 -38 60 -195 62 -77 0
-150 -1 -161 -3z"/>
<path d="M4345 2100 c-4 -6 8 -10 30 -10 22 0 34 4 30 10 -3 6 -17 10 -30 10
-13 0 -27 -4 -30 -10z"/>
<path d="M4363 2053 c9 -2 23 -2 30 0 6 3 -1 5 -18 5 -16 0 -22 -2 -12 -5z"/>
</g>
</svg>
